<?xml version="1.0" encoding="UTF-8" standalone="no"?>
<svg
   xmlns:dc="http://purl.org/dc/elements/1.1/"
   xmlns:cc="http://creativecommons.org/ns#"
   xmlns:rdf="http://www.w3.org/1999/02/22-rdf-syntax-ns#"
   xmlns:svg="http://www.w3.org/2000/svg"
   xmlns="http://www.w3.org/2000/svg"
   xmlns:sodipodi="http://sodipodi.sourceforge.net/DTD/sodipodi-0.dtd"
   xmlns:inkscape="http://www.inkscape.org/namespaces/inkscape"
   width="160"
   height="160"
   viewBox="0 0 42.333332 42.333335"
   version="1.1"
   id="svg8"
   inkscape:version="1.0 (4035a4fb49, 2020-05-01)"
   sodipodi:docname="github-cat.svg">
  <defs
     id="defs2">
    <inkscape:path-effect
       lpeversion="1"
       is_visible="true"
       id="path-effect1785"
       effect="spiro" />
    <inkscape:path-effect
       effect="spiro"
       id="path-effect891"
       is_visible="true"
       lpeversion="1" />
  </defs>
  <sodipodi:namedview
     id="base"
     pagecolor="#ffffff"
     bordercolor="#666666"
     borderopacity="1.0"
     inkscape:pageopacity="0.0"
     inkscape:pageshadow="2"
     inkscape:zoom="2.8284271"
     inkscape:cx="61.975294"
     inkscape:cy="76.440031"
     inkscape:document-units="px"
     inkscape:current-layer="layer1"
     inkscape:document-rotation="0"
     showgrid="false"
     units="px"
     showguides="false"
     inkscape:window-width="1366"
     inkscape:window-height="744"
     inkscape:window-x="0"
     inkscape:window-y="0"
     inkscape:window-maximized="1" />
  <metadata
     id="metadata5">
    <rdf:RDF>
      <cc:Work
         rdf:about="">
        <dc:format>image/svg+xml</dc:format>
        <dc:type
           rdf:resource="http://purl.org/dc/dcmitype/StillImage" />
        <dc:title />
      </cc:Work>
    </rdf:RDF>
  </metadata>
  <g
     inkscape:label="Layer 1"
     inkscape:groupmode="layer"
     id="layer1">
    <g
       id="g1063"
       transform="matrix(0.95330633,0,0,0.87990227,1.7323648,1.16124)">
      <path
         sodipodi:nodetypes="cssscsc"
         id="path1005"
         d="m 18.851457,26.628751 c 0,0 -0.183649,8.925385 -0.0614,12.523028 0.01967,0.578924 -3.156199,1.510856 -1.514767,2.019607 0.579143,0.179501 3.941963,-0.205348 3.996146,-1.546653 0.169739,-4.202062 -0.01217,-9.924645 0.02974,-15.248717 -1.28918,-0.351076 -2.404124,-1.008921 -2.411523,-0.479497 z"
         style="fill:#1a1a1a;fill-opacity:1;stroke:none;stroke-width:0.316206px;stroke-linecap:butt;stroke-linejoin:miter;stroke-opacity:1" />
      <path
         style="fill:#1a1a1a;fill-opacity:1;stroke:none;stroke-width:0.316206px;stroke-linecap:butt;stroke-linejoin:miter;stroke-opacity:1"
         d="m 24.613382,26.628751 c 0,0 0.18365,8.925385 0.0614,12.523028 -0.01967,0.578924 3.156199,1.510856 1.514767,2.019607 -0.579143,0.179501 -3.952015,-0.20498 -3.996144,-1.546653 -0.137726,-4.187354 -0.06591,-9.821927 -0.08314,-15.377779 1.289179,-0.351076 2.484745,-0.625024 2.487977,-0.09558 z"
         id="path1007"
         sodipodi:nodetypes="cssscsc" />
      <path
         style="fill:#1a1a1a;fill-opacity:1;stroke:none;stroke-width:0.270783px;stroke-linecap:butt;stroke-linejoin:miter;stroke-opacity:1"
         d="m 19.907737,23.205478 c 9.664258,-1.773391 6.915624,8.398807 7.500973,13.000676 0.360834,2.836796 1.456815,1.678952 1.502629,2.527921 0.02466,0.457016 -2.718857,0.212492 -2.936686,-0.601903 -1.218621,-4.556041 0.582905,-9.705188 -2.765649,-11.299552 -1.833467,-0.872978 0.712116,0.326873 -1.268022,-0.197371 -1.393814,-0.369015 -3.787174,-1.19101 -3.787174,-1.19101 1.910913,-0.57484 0.654411,-2.280326 1.753929,-2.238761 z"
         id="path1009"
         sodipodi:nodetypes="cssssscc" />
      <path
         sodipodi:nodetypes="cssssscc"
         id="path1057"
         d="m 23.315007,23.424477 c -9.776663,-1.773391 -6.996059,8.398807 -7.588216,13.000676 -0.365031,2.836796 -1.473759,1.678952 -1.520106,2.527921 -0.02495,0.457016 2.75048,0.212492 2.970842,-0.601903 1.232795,-4.556041 -0.4401,-9.650491 2.848269,-11.208292 1.312205,-0.621632 0,0 1.662672,-0.571153 3.10634,-1.067076 4.226402,-0.845129 4.226402,-0.845129 -1.933139,-0.57484 -1.487556,-2.343685 -2.599863,-2.30212 z"
         style="fill:#1a1a1a;fill-opacity:1;stroke:none;stroke-width:0.272353px;stroke-linecap:butt;stroke-linejoin:miter;stroke-opacity:1" />
    </g>
    <path
       style="fill:#1a1a1a;stroke:none;stroke-width:0.0251656;stroke-linecap:butt;stroke-linejoin:miter;stroke-miterlimit:4;stroke-dasharray:none;stroke-opacity:1"
       d="m 11.662497,14.992883 c 0.474675,4.245336 1.365164,7.452208 10.130131,7.276592 8.148566,-0.163266 9.469189,-2.282635 10.225668,-7.663859 0.240365,-2.334677 0.176235,-3.62394 -0.995911,-5.906176 0.76629,-1.7138369 1.04243,-2.6097448 0.721913,-4.7601997 -2.594459,0.3363223 -3.90505,0.685886 -5.666296,2.5708375 0,0 -1.176793,-0.6599813 -3.492167,-0.6429175 -1.56082,0.011503 -3.396507,0.071106 -4.932345,0.5268004 -1.145332,-0.9551734 -2.733458,-2.100203 -5.77494,-2.2057934 0.03536,1.9627267 -0.03904,3.5065136 0.786751,4.8876667 -0.830246,2.034905 -1.254887,2.591283 -1.002804,5.917049 z"
       id="path833"
       sodipodi:nodetypes="csccccscccc" />
    <path
       sodipodi:nodetypes="sscsccs"
       d="m 22.0495,12.920442 c 1.894703,-0.03254 3.840469,-0.344534 4.766156,-0.188913 0.998272,0.167821 2.273958,0.292981 2.54986,3.15554 0.294726,3.922748 -1.34487,5.309156 -7.008177,5.391564 -6.479861,0.09429 -7.542114,-1.103648 -8.050348,-4.590798 -0.02598,-1.933793 0.407276,-3.445047 2.314266,-3.80525 1.902789,-0.314529 3.73425,0.06694 5.428243,0.03785 z"
       style="fill:#ffffff;fill-opacity:1;stroke:#000000;stroke-width:0;stroke-linecap:butt;stroke-linejoin:miter;stroke-miterlimit:4;stroke-dasharray:none;stroke-opacity:1"
       id="path893" />
    <path
       id="path857"
       style="fill:#e4a570;fill-opacity:0.83648;stroke:none;stroke-width:0.245115px;stroke-linecap:butt;stroke-linejoin:miter;stroke-opacity:1"
       d="m 22.0495,12.920442 c 1.894703,-0.03254 3.840469,-0.344534 4.766156,-0.188913 0.998272,0.167821 2.273958,0.292981 2.54986,3.15554 0.294726,3.922748 -1.34487,5.309156 -7.008177,5.391564 -6.479861,0.09429 -7.542114,-1.103648 -8.050348,-4.590798 -0.02598,-1.933793 0.407276,-3.445047 2.314266,-3.80525 1.902789,-0.314529 3.73425,0.06694 5.428243,0.03785 z"
       sodipodi:nodetypes="sscsccs" />
    <path
       sodipodi:nodetypes="sscsccs"
       d="m 22.083671,13.283259 c 0.895198,0.02105 4.546496,-0.4412 5.402866,-0.308201 0.997423,0.154906 1.628298,0.874816 1.883345,3.413522 0.117744,3.307062 -1.724389,4.892309 -7.390459,4.93036 -6.483022,0.04354 -7.18954,-1.537407 -7.672432,-4.631105 -0.01182,-1.714023 0.307718,-3.440484 2.218074,-3.747941 0.834546,-0.241961 4.646989,0.321929 5.558606,0.343365 z"
       style="fill:#ffffff;fill-opacity:0.242123;stroke:none;stroke-width:0.230805px;stroke-linecap:butt;stroke-linejoin:miter;stroke-opacity:1"
       id="path895" />
    <path
       d="m 24.620215,16.24233 a 1.2575734,2.0662172 0 0 1 1.110598,-2.271804 1.2575734,2.0662172 0 0 1 1.388892,1.811997 1.2575734,2.0662172 0 0 1 -1.09506,2.292075 1.2575734,2.0662172 0 0 1 -1.401142,-1.786354"
       sodipodi:arc-type="arc"
       sodipodi:open="true"
       sodipodi:end="3.013311"
       sodipodi:start="3.0356861"
       sodipodi:ry="2.0662172"
       sodipodi:rx="1.2575734"
       sodipodi:cy="16.023912"
       sodipodi:cx="25.870743"
       sodipodi:type="arc"
       id="path871"
       style="opacity:0.834786;fill:#ffffff;fill-opacity:0.996055;stroke-width:0.347168;stroke-dashoffset:34.63" />
    <path
       style="opacity:0.834786;fill:#831800;fill-opacity:0.907655;stroke-width:0.268573;stroke-dashoffset:34.63"
       id="path873"
       sodipodi:type="arc"
       sodipodi:cx="25.693556"
       sodipodi:cy="16.050722"
       sodipodi:rx="0.94610077"
       sodipodi:ry="1.6436884"
       sodipodi:start="3.0356861"
       sodipodi:end="3.013311"
       sodipodi:open="true"
       sodipodi:arc-type="arc"
       d="m 24.752756,16.224474 a 0.94610077,1.6436884 0 0 1 0.835528,-1.807233 0.94610077,1.6436884 0 0 1 1.044894,1.441454 0.94610077,1.6436884 0 0 1 -0.823838,1.82336 0.94610077,1.6436884 0 0 1 -1.054111,-1.421056" />
    <path
       style="opacity:0.834786;fill:#ffffff;fill-opacity:0.987199;stroke-width:0.905773;stroke-dashoffset:34.63"
       id="path875"
       sodipodi:type="arc"
       sodipodi:cx="25.248018"
       sodipodi:cy="15.282438"
       sodipodi:rx="0.25222898"
       sodipodi:ry="0.25108516"
       sodipodi:start="3.0356861"
       sodipodi:end="3.013311"
       sodipodi:open="true"
       sodipodi:arc-type="arc"
       d="m 24.997202,15.30898 a 0.25222898,0.25108516 0 0 1 0.222751,-0.276068 0.25222898,0.25108516 0 0 1 0.278567,0.220193 0.25222898,0.25108516 0 0 1 -0.219634,0.278531 0.25222898,0.25108516 0 0 1 -0.281024,-0.217076" />
    <path
       style="opacity:0.834786;fill:#ffffff;fill-opacity:0.996055;stroke-width:0.347168;stroke-dashoffset:34.63"
       id="path877"
       sodipodi:type="arc"
       sodipodi:cx="18.458092"
       sodipodi:cy="16.251631"
       sodipodi:rx="1.2575734"
       sodipodi:ry="2.0662172"
       sodipodi:start="3.0356861"
       sodipodi:end="3.013311"
       sodipodi:open="true"
       sodipodi:arc-type="arc"
       d="m 17.207564,16.470048 a 1.2575734,2.0662172 0 0 1 1.110598,-2.271804 1.2575734,2.0662172 0 0 1 1.388892,1.811997 1.2575734,2.0662172 0 0 1 -1.09506,2.292076 1.2575734,2.0662172 0 0 1 -1.401142,-1.786355" />
    <path
       d="m 17.681551,16.476782 a 0.94610077,1.6436884 0 0 1 0.835528,-1.807234 0.94610077,1.6436884 0 0 1 1.044894,1.441455 0.94610077,1.6436884 0 0 1 -0.823838,1.82336 0.94610077,1.6436884 0 0 1 -1.054111,-1.421056"
       sodipodi:arc-type="arc"
       sodipodi:open="true"
       sodipodi:end="3.013311"
       sodipodi:start="3.0356861"
       sodipodi:ry="1.6436884"
       sodipodi:rx="0.94610077"
       sodipodi:cy="16.30303"
       sodipodi:cx="18.622351"
       sodipodi:type="arc"
       id="path879"
       style="opacity:0.834786;fill:#831800;fill-opacity:0.907655;stroke-width:0.268573;stroke-dashoffset:34.63" />
    <path
       d="m 17.942618,15.491255 a 0.25222898,0.25108516 0 0 1 0.22275,-0.276068 0.25222898,0.25108516 0 0 1 0.278568,0.220193 0.25222898,0.25108516 0 0 1 -0.219634,0.278531 0.25222898,0.25108516 0 0 1 -0.281025,-0.217077"
       sodipodi:arc-type="arc"
       sodipodi:open="true"
       sodipodi:end="3.013311"
       sodipodi:start="3.0356861"
       sodipodi:ry="0.25108516"
       sodipodi:rx="0.25222898"
       sodipodi:cy="15.464713"
       sodipodi:cx="18.193434"
       sodipodi:type="arc"
       id="path883"
       style="opacity:0.834786;fill:#ffffff;fill-opacity:0.987199;stroke-width:0.905773;stroke-dashoffset:34.63" />
    <path
       style="opacity:0.834786;fill:#831800;fill-opacity:0.905882;stroke-width:0.347168;stroke-dashoffset:34.63"
       id="path885"
       sodipodi:type="arc"
       sodipodi:cx="22.124102"
       sodipodi:cy="18.105864"
       sodipodi:rx="0.32755667"
       sodipodi:ry="0.32741222"
       sodipodi:start="3.0356861"
       sodipodi:end="3.013311"
       sodipodi:open="true"
       sodipodi:arc-type="arc"
       d="m 21.79838,18.140474 a 0.32755667,0.32741222 0 0 1 0.289275,-0.35999 0.32755667,0.32741222 0 0 1 0.36176,0.287129 0.32755667,0.32741222 0 0 1 -0.285227,0.363202 0.32755667,0.32741222 0 0 1 -0.364952,-0.283066" />
    <path
       style="fill:none;stroke:#831800;stroke-width:0.184867;stroke-linecap:butt;stroke-linejoin:miter;stroke-miterlimit:4;stroke-dasharray:none;stroke-opacity:0.905882"
       d="m 21.129047,19.085297 c 0.07667,0.210987 0.220896,0.396836 0.406245,0.523483 0.185348,0.126647 0.410906,0.193467 0.63533,0.188214 0.233705,-0.0055 0.464901,-0.08926 0.647846,-0.234792 0.182944,-0.145531 0.316579,-0.351963 0.374465,-0.578452"
       id="path889"
       inkscape:path-effect="#path-effect891"
       inkscape:original-d="m 21.129047,19.085297 c 0.146244,-0.04379 -0.241412,0.721986 1.041575,0.711697 1.358587,-0.01089 0.660213,-0.624089 1.022311,-0.813244"
       sodipodi:nodetypes="csc" />
    <g
       id="g991"
       transform="matrix(0.95330633,0,0,0.94898319,1.6082341,0.07289171)">
      <path
         sodipodi:nodetypes="cc"
         id="path967"
         d="M 11.356804,17.093281 C 7.0737851,16.714117 4.9453516,16.90942 0.33262293,18.064817"
         style="fill:none;stroke:#1a1a1a;stroke-width:0.264583;stroke-linecap:butt;stroke-linejoin:miter;stroke-miterlimit:4;stroke-dasharray:none;stroke-opacity:1" />
      <path
         style="fill:none;stroke:#1a1a1a;stroke-width:0.264583;stroke-linecap:butt;stroke-linejoin:miter;stroke-miterlimit:4;stroke-dasharray:none;stroke-opacity:1"
         d="M 11.458314,17.79246 C 7.1608491,17.651705 5.046544,17.964892 0.50508784,19.374638"
         id="path987"
         sodipodi:nodetypes="cc" />
    </g>
    <g
       id="g997"
       transform="matrix(-0.95330633,0,0,0.94898319,41.071757,0.07289171)">
      <path
         style="fill:none;stroke:#1a1a1a;stroke-width:0.264583;stroke-linecap:butt;stroke-linejoin:miter;stroke-miterlimit:4;stroke-dasharray:none;stroke-opacity:1"
         d="M 11.356804,17.093281 C 7.0737851,16.714117 4.9453516,16.90942 0.33262293,18.064817"
         id="path993"
         sodipodi:nodetypes="cc" />
      <path
         sodipodi:nodetypes="cc"
         id="path995"
         d="M 11.458314,17.79246 C 7.1608491,17.651705 5.046544,17.964892 0.50508784,19.374638"
         style="fill:none;stroke:#1a1a1a;stroke-width:0.264583;stroke-linecap:butt;stroke-linejoin:miter;stroke-miterlimit:4;stroke-dasharray:none;stroke-opacity:1" />
    </g>
    <path
       style="fill:#1a1a1a;fill-opacity:1;stroke:none;stroke-width:0.251656px;stroke-linecap:butt;stroke-linejoin:miter;stroke-opacity:1"
       d="m 17.42015,25.334907 c -1.390776,1.437251 -3.180159,3.248509 -5.408638,2.878781 C 8.8665396,27.691903 8.5602441,24.624287 5.9482326,23.975296 3.3610588,23.332476 2.749127,24.23882 3.3514592,24.656332 c 0.3417095,0.236858 0.8637747,0.333518 2.0507282,0.713801 2.667939,0.85477 2.6062145,5.180945 7.7568196,4.666709 1.644757,-0.164213 2.722104,-0.907911 3.692952,-1.691379"
       id="path1011"
       sodipodi:nodetypes="csssssc" />
    <path
       style="opacity:0.834786;fill:#00ffff;fill-opacity:1;stroke:none;stroke-width:0.206365;stroke-miterlimit:4;stroke-dasharray:none;stroke-dashoffset:34.63;stroke-opacity:1"
       id="path1015"
       sodipodi:type="arc"
       sodipodi:cx="3.4580858"
       sodipodi:cy="32.001926"
       sodipodi:rx="0.30653125"
       sodipodi:ry="0.21733709"
       sodipodi:start="3.0356861"
       sodipodi:end="3.013311"
       sodipodi:open="true"
       sodipodi:arc-type="arc"
       d="M 3.153272,32.024901 A 0.30653125,0.21733709 0 0 1 3.4239782,31.785939 0.30653125,0.21733709 0 0 1 3.762518,31.976536 0.30653125,0.21733709 0 0 1 3.4955992,32.21763 0.30653125,0.21733709 0 0 1 3.1540732,32.02973"
       transform="matrix(0.92865079,-0.37095513,0.37387097,0.92748073,0,0)"
       inkscape:transform-center-x="-0.094635076"
       inkscape:transform-center-y="-0.18570356" />
    <path
       inkscape:transform-center-y="-0.15146415"
       inkscape:transform-center-x="-0.14354599"
       transform="matrix(0.99555238,-0.09420962,0.09506219,0.99547134,0,0)"
       d="m 10.494274,30.176859 a 0.30671138,0.21720846 0 0 1 0.270865,-0.23882 0.30671138,0.21720846 0 0 1 0.338739,0.190483 0.30671138,0.21720846 0 0 1 -0.267076,0.240952 0.30671138,0.21720846 0 0 1 -0.341726,-0.187788"
       sodipodi:arc-type="arc"
       sodipodi:open="true"
       sodipodi:end="3.013311"
       sodipodi:start="3.0356861"
       sodipodi:ry="0.21720846"
       sodipodi:rx="0.30671138"
       sodipodi:cy="30.153898"
       sodipodi:cx="10.799267"
       sodipodi:type="arc"
       id="path1017"
       style="opacity:0.834786;fill:#00ffff;fill-opacity:1;stroke:none;stroke-width:0.206365;stroke-miterlimit:4;stroke-dasharray:none;stroke-dashoffset:34.63;stroke-opacity:1" />
    <path
       style="opacity:0.834786;fill:#00ffff;fill-opacity:1;stroke:none;stroke-width:0.206365;stroke-miterlimit:4;stroke-dasharray:none;stroke-dashoffset:34.63;stroke-opacity:1"
       id="path1019"
       sodipodi:type="arc"
       sodipodi:cx="19.862642"
       sodipodi:cy="24.091005"
       sodipodi:rx="0.30659163"
       sodipodi:ry="0.21729398"
       sodipodi:start="3.0356861"
       sodipodi:end="3.013311"
       sodipodi:open="true"
       sodipodi:arc-type="arc"
       d="m 19.557768,24.113975 a 0.30659163,0.21729398 0 0 1 0.27076,-0.238914 0.30659163,0.21729398 0 0 1 0.338606,0.190559 0.30659163,0.21729398 0 0 1 -0.266971,0.241046 0.30659163,0.21729398 0 0 1 -0.341593,-0.187862"
       transform="matrix(0.95161611,0.3072894,-0.30982725,0.95079287,0,0)"
       inkscape:transform-center-x="-0.19217175"
       inkscape:transform-center-y="-0.082248412" />
    <path
       inkscape:transform-center-y="-0.020251143"
       inkscape:transform-center-x="-0.20818802"
       transform="matrix(0.81377785,0.58117606,-0.58467445,0.81126801,0,0)"
       d="m 24.363938,17.378907 a 0.30625185,0.21753632 0 0 1 0.27046,-0.239181 0.30625185,0.21753632 0 0 1 0.338231,0.190771 0.30625185,0.21753632 0 0 1 -0.266676,0.241315 0.30625185,0.21753632 0 0 1 -0.341214,-0.188071"
       sodipodi:arc-type="arc"
       sodipodi:open="true"
       sodipodi:end="3.013311"
       sodipodi:start="3.0356861"
       sodipodi:ry="0.21753632"
       sodipodi:rx="0.30625185"
       sodipodi:cy="17.355911"
       sodipodi:cx="24.668474"
       sodipodi:type="arc"
       id="path1021"
       style="opacity:0.834786;fill:#00ffff;fill-opacity:1;stroke:none;stroke-width:0.206366;stroke-miterlimit:4;stroke-dasharray:none;stroke-dashoffset:34.63;stroke-opacity:1" />
    <path
       style="opacity:0.834786;fill:#00ffff;fill-opacity:1;stroke:none;stroke-width:0.206366;stroke-miterlimit:4;stroke-dasharray:none;stroke-dashoffset:34.63;stroke-opacity:1"
       id="path1023"
       sodipodi:type="arc"
       sodipodi:cx="26.974707"
       sodipodi:cy="9.6102858"
       sodipodi:rx="0.3058407"
       sodipodi:ry="0.21782881"
       sodipodi:start="3.0356861"
       sodipodi:end="3.013311"
       sodipodi:open="true"
       sodipodi:arc-type="arc"
       d="M 26.67058,9.6333122 A 0.3058407,0.21782881 0 0 1 26.940676,9.3938096 0.3058407,0.21782881 0 0 1 27.278453,9.5848375 0.3058407,0.21782881 0 0 1 27.012136,9.8264772 0.3058407,0.21782881 0 0 1 26.671379,9.6381526"
       transform="matrix(0.60555958,0.79579997,-0.79844188,0.6020719,0,0)"
       inkscape:transform-center-x="-0.20489382"
       inkscape:transform-center-y="0.041937897" />
    <path
       inkscape:transform-center-y="0.012403676"
       inkscape:transform-center-x="-0.19602952"
       transform="matrix(0.76122784,0.64848453,-0.77379996,0.63343005,0,0)"
       d="m 24.938479,15.090568 a 0.26508972,0.18924387 0 0 1 0.234108,-0.208073 0.26508972,0.18924387 0 0 1 0.292771,0.16596 0.26508972,0.18924387 0 0 1 -0.230833,0.20993 0.26508972,0.18924387 0 0 1 -0.295353,-0.163612"
       sodipodi:arc-type="arc"
       sodipodi:open="true"
       sodipodi:end="3.013311"
       sodipodi:start="3.0356861"
       sodipodi:ry="0.18924387"
       sodipodi:rx="0.26508972"
       sodipodi:cy="15.070563"
       sodipodi:cx="25.202084"
       sodipodi:type="arc"
       id="path1025"
       style="opacity:0.834786;fill:#00ffff;fill-opacity:1;stroke:none;stroke-width:0.179077;stroke-miterlimit:4;stroke-dasharray:none;stroke-dashoffset:34.63;stroke-opacity:1" />
    <path
       style="opacity:0.834786;fill:#00ffff;fill-opacity:1;stroke:none;stroke-width:0.154805;stroke-miterlimit:4;stroke-dasharray:none;stroke-dashoffset:34.63;stroke-opacity:1"
       id="path1027"
       sodipodi:type="arc"
       sodipodi:cx="23.445385"
       sodipodi:cy="17.006422"
       sodipodi:rx="0.22913145"
       sodipodi:ry="0.16361557"
       sodipodi:start="3.0356861"
       sodipodi:end="3.013311"
       sodipodi:open="true"
       sodipodi:arc-type="arc"
       d="m 23.217537,17.023718 a 0.22913145,0.16361557 0 0 1 0.202353,-0.179896 0.22913145,0.16361557 0 0 1 0.253057,0.143485 0.22913145,0.16361557 0 0 1 -0.199521,0.181501 0.22913145,0.16361557 0 0 1 -0.25529,-0.141455"
       transform="matrix(0.81500209,0.57945801,-0.74481943,0.66726608,0,0)"
       inkscape:transform-center-x="-0.17278085"
       inkscape:transform-center-y="-0.00090471766" />
    <path
       inkscape:transform-center-y="-0.033910087"
       inkscape:transform-center-x="-0.15677655"
       transform="matrix(0.93988111,0.34150184,-0.61324301,0.7898943,0,0)"
       d="m 20.226572,22.273316 a 0.21109386,0.1419916 0 0 1 0.186423,-0.156119 0.21109386,0.1419916 0 0 1 0.233137,0.124521 0.21109386,0.1419916 0 0 1 -0.183815,0.157513 0.21109386,0.1419916 0 0 1 -0.235193,-0.122759"
       sodipodi:arc-type="arc"
       sodipodi:open="true"
       sodipodi:end="3.013311"
       sodipodi:start="3.0356861"
       sodipodi:ry="0.1419916"
       sodipodi:rx="0.21109386"
       sodipodi:cy="22.258307"
       sodipodi:cx="20.436483"
       sodipodi:type="arc"
       id="path1029"
       style="opacity:0.834786;fill:#00ffff;fill-opacity:1;stroke:none;stroke-width:0.13842;stroke-miterlimit:4;stroke-dasharray:none;stroke-dashoffset:34.63;stroke-opacity:1" />
    <path
       style="opacity:0.834786;fill:#00ffff;fill-opacity:1;stroke:none;stroke-width:0.105267;stroke-miterlimit:4;stroke-dasharray:none;stroke-dashoffset:34.63;stroke-opacity:1"
       id="path1031"
       sodipodi:type="arc"
       sodipodi:cx="20.051092"
       sodipodi:cy="22.688627"
       sodipodi:rx="0.16175121"
       sodipodi:ry="0.1071703"
       sodipodi:start="3.0356861"
       sodipodi:end="3.013311"
       sodipodi:open="true"
       sodipodi:arc-type="arc"
       d="m 19.890247,22.699956 a 0.16175121,0.1071703 0 0 1 0.142847,-0.117834 0.16175121,0.1071703 0 0 1 0.178642,0.09398 0.16175121,0.1071703 0 0 1 -0.140849,0.118885 0.16175121,0.1071703 0 0 1 -0.180217,-0.09265"
       transform="matrix(0.94309056,0.33253601,-0.62470249,0.78086286,0,0)"
       inkscape:transform-center-x="-0.12054063"
       inkscape:transform-center-y="-0.025301206" />
    <path
       style="fill:#00aeff;fill-opacity:0.477239;stroke:none;stroke-width:0.251656px;stroke-linecap:butt;stroke-linejoin:miter;stroke-opacity:1"
       d="m 4.2147329,25.002435 c -0.023339,0.155209 -0.040039,0.321651 -0.11152,0.463965 -0.09935,0.1978 -0.2636048,0.369585 -0.2636048,0.610023 0,0.515173 0.7298855,0.529971 0.7298855,0.0092 0,-0.353425 -0.431443,-0.808115 -0.3547607,-1.083169 z"
       id="path1035"
       sodipodi:nodetypes="sssscs" />
    <path
       style="fill:#080808;fill-opacity:0.83292;stroke:none;stroke-width:0.251656px;stroke-linecap:butt;stroke-linejoin:miter;stroke-opacity:1"
       d="m 19.155585,22.211187 c 1.055741,0.07066 1.600348,0.07619 3.163159,0.04194 2.184396,-0.107067 1.420322,-0.0573 3.120725,-0.240489 0.372029,0.238822 0.652,0.412244 0.884632,0.698405 -0.01003,0.02967 -0.747156,-0.108991 -0.84263,-0.124697 -0.8664,-0.1425 -1.961212,-0.03136 -2.83343,-0.03136 -0.74393,0 -4.034339,0.01743 -4.37567,0.357217 -0.05069,0.05046 0.101238,-0.0977 0.152118,-0.147957 0.198415,-0.195999 0.15398,-0.162739 0.384728,-0.320712 z"
       id="path1091"
       sodipodi:nodetypes="cccccssscc" />
    <rect
       ry="21.075207"
       style="opacity:0.834786;fill:#0068ff;fill-opacity:0.105882;stroke:#4d4d4d;stroke-width:0.049564;stroke-dashoffset:34.63"
       id="rect847"
       width="41.817585"
       height="42.150414"
       x="0.024782015"
       y="0.024782015" />
  </g>
</svg>
